<svg  viewBox="0 0 80.7857 47.677" fill="none" xmlns="http://www.w3.org/2000/svg">
<g id="Group 6">
<path id="Vector" d="M53.1891 44.6271C51.8993 44.0541 50.5868 43.6833 49.2572 43.3656C48.5424 43.1948 47.8296 43.0168 47.1542 42.7176C46.0111 42.2113 45.1942 41.3992 44.7505 40.2142C44.5092 39.5699 44.3974 38.8999 44.2652 38.2314C44.0204 36.9946 43.7605 35.7607 43.3286 34.5719C42.7101 32.8694 41.9391 31.2468 40.8355 29.7958C40.0775 28.7993 39.2212 27.9029 38.1919 27.1864C37.5162 26.716 36.7933 26.321 36.0444 25.9774C35.2329 25.6052 34.4243 25.23 33.6535 24.7749C32.3392 23.9986 31.2282 22.9958 30.2748 21.8106C30.1661 21.6754 30.0544 21.5426 29.9398 21.4035C29.6233 21.6553 29.3209 21.8928 29.0218 22.1344C27.6416 23.2489 26.1508 24.1939 24.595 25.0419C23.0715 25.8723 21.5025 26.6006 19.8553 27.148C18.7105 27.5284 17.5425 27.8161 16.3473 28.0095C15.0237 28.2237 13.6954 28.2661 12.3667 28.1817C10.1134 28.0386 7.99915 27.4258 6.07831 26.199C4.65881 25.2924 3.44463 24.1723 2.44005 22.8229C1.49223 21.5498 0.78096 20.1523 0.243789 18.6614C0.025344 18.055 -0.0233719 17.4317 0.00915135 16.798C0.0290832 16.4095 0.222474 16.0921 0.501385 15.8393C1.31711 15.0997 2.11565 15.1341 2.92309 15.7259C3.0437 15.8142 3.1353 15.9605 3.20436 16.098C3.73511 17.1551 4.44031 18.089 5.20922 18.9798C6.1859 20.1113 7.3501 20.9882 8.72509 21.5802C9.39071 21.8668 10.0969 22.0119 10.809 22.0828C11.9332 22.1947 13.0398 22.0749 14.1303 21.7482C15.8491 21.2333 17.3568 20.3369 18.7799 19.2736C19.7221 18.5696 20.593 17.7851 21.4214 16.9515C23.1939 15.1681 24.7024 13.1744 26.1031 11.0937C26.9039 9.90412 27.6873 8.70178 28.566 7.56674C30.1922 5.4659 32.1539 3.73985 34.4169 2.3523C35.9205 1.43037 37.5307 0.77392 39.2544 0.396056C40.5948 0.102214 41.9492 -0.0225291 43.3221 0.00331495C45.091 0.036615 46.802 0.368954 48.4576 0.973797C49.6432 1.40694 50.7503 2.00713 51.8183 2.67953C52.9479 3.39066 53.9756 4.23338 54.9854 5.1009C56.1705 6.11902 57.2398 7.25275 58.3093 8.38796C59.0051 9.1265 59.7187 9.84921 60.4451 10.5577C60.9851 11.0844 61.5909 11.536 62.2473 11.9097C62.5343 12.0731 62.8409 12.2129 63.1539 12.3173C63.8103 12.5361 64.4277 12.4137 64.9968 12.0369C65.0426 11.894 64.9415 11.8384 64.8511 11.7923C63.9742 11.3452 63.2807 10.6858 62.6932 9.91077C62.1704 9.22114 61.7495 8.4744 61.5904 7.61122C61.5369 7.32116 61.5096 7.01765 61.5295 6.72432C61.5901 5.83262 62.1838 5.19692 63.0646 5.0376C63.5901 4.94255 64.1196 4.96361 64.6325 5.07647C65.8173 5.33717 66.9446 5.76022 67.982 6.4C68.6912 6.83734 69.2708 7.41887 69.7958 8.05871C69.9399 8.23436 70.08 8.41328 70.2138 8.5806C70.675 8.62651 71.1313 8.64472 71.5776 8.72135C73.0496 8.97407 74.3393 9.5918 75.3468 10.7194C75.9878 11.4368 76.7492 11.9754 77.6126 12.3901C78.148 12.6472 78.6667 12.9401 79.1865 13.2285C79.6039 13.4602 79.9535 13.7708 80.2487 14.1515C80.9706 15.0822 80.9595 16.5155 80.2468 17.4862C79.5844 18.3883 78.6654 18.7833 77.6091 18.9251C77.0151 19.0049 76.4218 18.9596 75.8461 18.7568C75.567 18.6585 75.2783 18.5852 74.9905 18.5149C73.752 18.2121 72.5219 18.2601 71.3106 18.6481C70.8063 18.8096 70.3617 19.0875 69.9814 19.4644C69.355 20.0852 68.8658 20.8111 68.3661 21.531C67.6768 22.5242 66.9585 23.4917 66.0707 24.3269C65.167 25.177 64.134 25.8207 63.0313 26.3674C62.7491 26.5073 62.4604 26.6361 62.1866 26.791C61.4169 27.2265 60.8486 27.8626 60.4517 28.6429C60.1586 29.219 59.9057 29.8158 59.6426 30.4069C59.2364 31.3195 58.7948 32.211 58.2269 33.0382C57.6795 33.8356 56.9843 34.4695 56.1339 34.9116C55.2766 35.3573 54.3477 35.5613 53.388 35.3584C52.3095 35.1303 51.5692 34.4823 51.2861 33.3916C51.0475 32.4725 51.3356 31.6965 52.029 31.074C52.3833 30.756 52.8029 30.5348 53.2663 30.4061C53.3673 30.378 53.4644 30.3228 53.5663 30.3137C53.9646 30.278 54.143 30.0061 54.2456 29.6745C54.4808 28.9149 54.575 28.1369 54.4974 27.3421C54.4961 27.3284 54.4762 27.3166 54.4743 27.3143C53.707 27.1884 52.9447 27.0919 52.1958 26.9322C51.4667 26.7767 50.7514 26.5566 50.0078 26.359C49.9652 26.5997 49.9912 26.8219 50.0111 27.0439C50.0831 27.8459 50.1516 28.6482 50.2279 29.4497C50.3707 30.9486 50.4724 32.4529 50.7917 33.9295C50.9324 34.58 51.0796 35.2294 51.3299 35.8493C51.8551 37.1494 52.7343 38.1362 53.9631 38.8097C54.8113 39.2746 55.7126 39.6086 56.6423 39.8665C57.8223 40.194 59.0082 40.5012 60.1852 40.8392C61.0941 41.1003 61.9849 41.4173 62.8267 41.8561C63.5483 42.2323 64.1861 42.7148 64.7239 43.3308C65.1512 43.8201 65.4395 44.3815 65.5043 45.0202C65.5815 45.7801 65.3136 46.4357 64.708 46.9241C64.3064 47.248 63.844 47.4544 63.3368 47.5537C62.6438 47.6893 61.9466 47.7069 61.244 47.6366C60.0319 47.5153 58.8731 47.1866 57.7571 46.7155C56.8076 46.3145 55.8754 45.8722 54.9378 45.4433C54.365 45.1812 53.7965 44.9099 53.1891 44.6271ZM35.1328 15.4924C34.7626 15.4954 34.4097 15.434 34.1083 15.243C34.095 15.1966 34.0892 15.18 34.0857 15.1629C34.0822 15.1459 34.0807 15.1284 34.0791 15.111C34.0775 15.0936 34.0765 15.0761 34.076 15.0586C34.0744 15.0061 34.0719 14.9535 34.0719 14.901C34.0714 13.7623 34.0713 12.6236 34.0706 11.485C34.0706 11.415 34.0672 11.3451 34.0641 11.2752C34.0633 11.2583 34.0623 11.2381 34.053 11.2258C34.0434 11.2132 34.0234 11.2083 34.008 11.2C33.9919 11.1974 33.9684 11.1864 33.9608 11.1933C32.974 12.0808 31.9884 12.9696 31.0044 13.8569C30.8603 13.8372 30.7995 13.7343 30.8207 13.5739C31.5245 12.916 32.2285 12.2584 32.932 11.6002C33.2391 11.3129 33.5513 11.0308 33.8497 10.7348C34.1467 10.4401 34.1797 10.1241 33.9751 9.69118C33.7433 9.78764 33.5808 9.975 33.4034 10.1368C32.6656 10.8095 31.9314 11.4863 31.201 12.1671C30.8561 12.4886 30.5226 12.8225 30.1138 13.1417C29.8151 12.9536 29.5753 12.7117 29.3933 12.376C29.5396 12.2321 29.6735 12.0961 29.8122 11.9652C29.9522 11.833 30.0977 11.7066 30.2396 11.5763C30.3815 11.446 30.5219 11.3142 30.6627 11.1827C30.7908 11.0631 30.9191 10.9438 31.0459 10.823C31.1854 10.69 31.3216 10.5535 31.4623 10.4218C31.6028 10.2903 31.7498 10.1656 31.8891 10.0329C32.0217 9.9067 32.1914 9.80987 32.2763 9.61921C31.8642 9.54493 29.0639 9.53913 28.6286 9.60774C28.369 9.98856 28.1034 10.3796 27.8363 10.7696C26.827 12.2435 25.8434 13.7347 24.7232 15.1305C23.0815 17.1762 21.2579 19.0265 19.128 20.5727C17.4803 21.7689 15.7166 22.6967 13.7198 23.1536C13.2068 23.271 12.6945 23.3721 12.1669 23.3753C11.8339 23.3773 11.5009 23.3777 11.1679 23.3737C10.1929 23.3621 9.25805 23.141 8.35948 22.7815C6.67912 22.1092 5.31307 21.0029 4.15136 19.636C3.5152 18.8875 2.96583 18.0739 2.46782 17.2266C2.39688 17.1059 2.32783 16.9833 2.24716 16.8692C2.142 16.7205 1.99655 16.6232 1.8123 16.6056C1.49429 16.5753 1.22083 16.8016 1.22658 17.1349C1.23133 17.4111 1.28317 17.691 1.34859 17.9609C1.53117 18.7141 1.87453 19.4034 2.21638 20.0943C2.91592 21.5081 3.8389 22.7538 5.00185 23.817C5.97743 24.709 7.04792 25.4718 8.2777 25.9711C9.46439 26.4528 10.7004 26.7958 11.9766 26.9137C13.2864 27.0348 14.6049 27.0287 15.9095 26.8214C17.6959 26.5374 19.4321 26.0605 21.0992 25.3544C23.3476 24.4021 25.4706 23.2196 27.4474 21.7861C28.2263 21.2212 28.9615 20.596 29.7153 19.9965C29.7926 19.9351 29.8605 19.8619 29.9474 19.7805C29.667 19.3801 29.403 19.0113 29.1478 18.6365C28.8965 18.2677 28.5885 17.9341 28.3969 17.4757C28.6849 17.499 28.8965 17.6245 29.1171 17.7155C29.7152 17.9624 30.3097 18.2182 30.9081 18.4646C31.0142 18.5082 31.132 18.5232 31.2696 18.5577C31.422 18.0588 31.5545 17.5893 31.7098 17.1275C31.8684 16.6557 31.9467 16.1526 32.2356 15.6559C32.583 16.6516 32.7818 17.6252 33.1567 18.5611C33.3062 18.5148 33.4235 18.4874 33.5338 18.4428C34.1828 18.1804 34.8294 17.9118 35.4789 17.6504C35.6335 17.5883 35.7809 17.481 35.9948 17.5196C35.7544 17.9811 35.4269 18.3501 35.1681 18.7637C34.9001 19.1919 34.5642 19.5772 34.3348 20.046C34.7241 20.3715 35.1659 20.5886 35.5746 20.8555C35.9885 21.1257 36.4477 21.3309 36.8242 21.6753C36.7686 21.7194 36.7451 21.7545 36.7192 21.7563C35.968 21.8104 35.2166 21.8605 34.4653 21.9128C34.2613 21.9271 34.0495 21.9138 33.852 22.053C33.919 22.4752 33.9954 22.8881 34.0459 23.3042C34.0699 23.5026 34.1665 23.6253 34.3295 23.7127C34.638 23.8781 34.9434 24.0499 35.2577 24.2033C35.824 24.4798 36.4027 24.7315 36.964 25.0175C37.9175 25.5033 38.8343 26.0497 39.6552 26.7444C41.3702 28.1956 42.6481 29.9791 43.6089 31.9943C44.4793 33.8197 45.0772 35.737 45.4599 37.7229C45.5755 38.3229 45.7075 38.9205 45.8551 39.5135C46.0914 40.4626 46.687 41.1222 47.5747 41.5049C48.0068 41.6913 48.4599 41.835 48.9127 41.966C49.4667 42.1264 50.0312 42.2503 50.5898 42.3951C52.0346 42.7696 53.4199 43.3015 54.7608 43.9563C55.7037 44.4167 56.6479 44.8764 57.6082 45.2988C58.749 45.8006 59.9314 46.1806 61.1765 46.3312C61.7701 46.4029 62.3645 46.4126 62.9583 46.3279C63.2399 46.2877 63.5065 46.2021 63.7419 46.0422C64.2302 45.7105 64.364 45.2526 64.1141 44.7162C64.0191 44.5121 63.8992 44.3087 63.748 44.1443C63.524 43.9009 63.2779 43.6713 63.0132 43.4733C62.3483 42.976 61.6045 42.6259 60.8094 42.3927C59.5847 42.0335 58.3588 41.6776 57.1287 41.3376C55.8602 40.9869 54.6122 40.5828 53.4472 39.9618C53.0629 39.757 52.6811 39.5304 52.3432 39.258C50.9989 38.1739 50.1955 36.7442 49.7565 35.0926C49.3316 33.4941 49.1638 31.8561 49.0125 30.2163C48.9337 29.3616 48.8814 28.5045 48.8103 27.6492C48.8005 27.5312 48.7825 27.3922 48.7145 27.3047C48.4917 27.018 48.2564 26.7387 47.9831 26.4729C47.724 26.6289 47.5823 26.854 47.4087 27.044C47.2345 27.2345 47.0694 27.4334 46.8146 27.6664C46.8622 27.055 47.0057 26.5353 46.9727 25.9882C46.823 25.9686 46.704 25.9501 46.5844 25.9383C46.4449 25.9245 46.305 25.915 46.165 25.9067C46.0426 25.8994 45.9196 25.8998 45.7974 25.8904C45.6676 25.8804 45.5301 25.9097 45.3515 25.8374C45.8126 25.4426 46.3814 25.2981 46.763 24.8736C46.6582 24.711 46.5658 24.5626 46.4683 24.4176C46.3707 24.2723 46.263 24.1336 46.1692 23.9859C46.0823 23.8489 45.939 23.7368 45.9227 23.507C46.4609 23.6641 46.9143 23.9307 47.4722 24.0695C47.6086 23.5485 47.7643 23.0577 47.9121 22.5687C48.0458 22.5802 48.0595 22.6726 48.084 22.7546C48.184 23.0901 48.2788 23.4273 48.3853 23.7607C48.415 23.8538 48.4781 23.9362 48.5281 24.0274C49.0557 23.8971 49.5035 23.6059 50.0929 23.4895C49.8645 23.8315 49.6783 24.1048 49.4989 24.3825C49.447 24.4628 49.4146 24.5558 49.3669 24.6567C50.0742 25.0161 50.786 25.2598 51.5107 25.4588C52.2176 25.6528 52.9342 25.8008 53.6626 25.912C54.4098 26.026 55.1645 25.9853 55.9224 26.0975C55.9265 26.1731 55.9373 26.2415 55.9327 26.3089C55.8848 27.0081 55.8506 27.7088 55.7796 28.4057C55.7247 28.9446 55.6348 29.4795 55.4727 30.0015C55.2112 30.8432 54.6755 31.3778 53.8097 31.5822C53.5905 31.6339 53.3679 31.7078 53.1727 31.8174C52.7626 32.0477 52.5134 32.4157 52.5262 32.8882C52.5394 33.3773 52.7962 33.7496 53.2471 33.9658C53.6034 34.1367 53.984 34.2023 54.3734 34.1499C55.1191 34.0494 55.7886 33.7671 56.359 33.2656C56.7304 32.9391 57.0374 32.5579 57.3185 32.1542C57.7914 31.475 58.1351 30.7276 58.4678 29.9743C58.7083 29.4299 58.9376 28.8799 59.1972 28.3447C59.7774 27.1485 60.6056 26.1743 61.7955 25.5412C62.1196 25.3688 62.4515 25.2109 62.7807 25.0482C63.922 24.4841 64.9418 23.7596 65.8078 22.818C66.332 22.248 66.7749 21.6206 67.2148 20.9876C67.6244 20.3984 68.0351 19.8086 68.4754 19.2424C68.985 18.587 69.5995 18.0457 70.3534 17.6744C71.6417 17.0399 73.0051 16.9356 74.4035 17.1025C75.0298 17.1773 75.6409 17.3353 76.2453 17.5167C77.0354 17.7539 77.8033 17.7078 78.5358 17.3127C78.9817 17.0722 79.3518 16.7504 79.4513 16.2257C79.5863 15.5142 79.427 14.8452 78.7154 14.4109C78.1469 14.0639 77.5739 13.7286 76.9621 13.4624C76.2325 13.1449 75.5738 12.7194 75.0065 12.1581C74.7699 11.9239 74.5455 11.6764 74.2978 11.4548C74.0377 11.2221 73.7702 10.9927 73.4819 10.7975C72.5407 10.1602 71.4969 9.85811 70.3578 9.8897C70.0798 9.89741 69.8015 9.89085 69.5173 9.89085C69.4434 9.77093 69.3807 9.66754 69.3165 9.56506C68.8758 8.86143 68.3543 8.23305 67.6657 7.75337C66.8546 7.18833 65.9766 6.76126 65.0313 6.48C64.4917 6.31944 63.933 6.26559 63.3693 6.29797C62.9921 6.31964 62.801 6.52478 62.8081 6.90715C62.811 7.06342 62.8314 7.22228 62.8669 7.37455C63.1056 8.39641 63.656 9.23266 64.4094 9.94781C65.1083 10.6113 65.9321 11.0597 66.8377 11.3678C66.9669 11.4117 67.1027 11.4365 67.1999 11.5975C67.0841 11.7493 66.9795 11.9093 66.8523 12.0487C66.4854 12.451 66.0764 12.8057 65.6285 13.1175C64.7283 13.7442 63.7606 13.8502 62.7275 13.523C61.9313 13.2708 61.2176 12.8612 60.5832 12.3317C59.9251 11.7823 59.2934 11.1991 58.6755 10.6043C58.1464 10.095 57.6491 9.55222 57.1463 9.01615C56.9763 8.83487 56.8092 8.79714 56.5815 8.94056C56.6183 9.205 56.6643 9.46299 56.6875 9.72303C56.7094 9.96796 56.8091 10.2104 56.7491 10.5076C56.296 10.163 56.051 9.67225 55.6034 9.36849C55.2961 9.70959 55.0051 10.0357 54.7096 10.3578C54.658 10.414 54.5875 10.4527 54.4903 10.5264C54.5054 9.9519 54.6795 9.44915 54.6672 8.90523C54.4699 8.87222 54.2996 8.83467 54.1272 8.81691C53.8311 8.7864 53.5335 8.76904 53.2367 8.7442C53.1744 8.73899 53.0919 8.75825 53.0898 8.61434C53.434 8.41269 53.7961 8.20476 54.1533 7.98854C54.2516 7.92902 54.335 7.84477 54.4121 7.78247C54.1849 7.27943 53.8177 6.89826 53.5825 6.34729C53.8183 6.43715 53.9796 6.49312 54.1364 6.55981C54.3133 6.63509 54.484 6.72541 54.662 6.79788C54.7262 6.82406 54.8039 6.81751 54.938 6.83325C54.8436 6.72865 54.8016 6.67282 54.7506 6.62698C54.2949 6.21743 53.8451 5.80091 53.3793 5.40316C52.3642 4.53648 51.2666 3.7833 50.0978 3.14283C49.053 2.5703 47.9444 2.14142 46.798 1.81052C45.3542 1.39376 43.8833 1.22173 42.304 1.27591C42.1026 1.2502 41.928 1.29622 41.7754 1.44109C41.56 1.64547 41.3307 1.83513 41.1134 2.03757C40.3087 2.78725 39.5066 3.53959 38.7115 4.2834C38.6836 4.58069 38.6578 4.85124 38.7362 5.14909C38.9115 5.10481 39.0048 5.00321 39.1049 4.91067C39.8363 4.23405 40.5716 3.56164 41.299 2.88078C41.7191 2.4876 42.1268 2.08117 42.6114 1.68263C42.9386 1.8624 43.1422 2.15962 43.3859 2.45059C43.037 2.78552 42.7144 3.1016 42.3847 3.41004C42.0664 3.70779 41.7383 3.99507 41.4189 4.29171C41.0947 4.59279 40.7452 4.86958 40.4239 5.25922C40.777 5.31182 41.0698 5.28289 41.3603 5.28785C41.6568 5.29292 41.9535 5.28808 42.2501 5.28834C42.5467 5.2886 42.8433 5.28957 43.1399 5.29068C43.4365 5.2918 43.7332 5.28993 44.0297 5.29591C44.3219 5.30179 44.6166 5.27878 44.9174 5.3293C45.044 5.67309 45.1815 5.99044 45.0228 6.34204C43.0072 6.3391 40.9917 6.33618 38.9761 6.3332C38.6081 6.33265 38.2399 6.33682 37.8721 6.32788C37.7746 6.32552 37.6782 6.28246 37.5527 6.2509C37.5527 6.05757 37.5531 5.88414 37.5526 5.71071C37.5503 4.74676 37.5507 3.78278 37.5425 2.81888C37.5411 2.65459 37.5924 2.46624 37.4087 2.32356C36.8489 2.52322 36.3201 2.79306 35.7878 3.05426C35.6464 3.12363 35.4993 3.18911 35.3754 3.28336C35.3008 3.34013 35.2418 3.44307 35.219 3.53588C35.1904 3.65226 35.2035 3.77952 35.2029 3.9021C35.2001 4.51552 35.2007 5.12897 35.1957 5.74238C35.1942 5.93033 35.2095 6.12438 35.0885 6.32243C33.862 6.32243 32.6375 6.32243 31.4551 6.32243C30.9009 6.76719 29.882 7.93355 29.6189 8.41664C29.8143 8.52432 30.0269 8.4932 30.2307 8.49379C31.6679 8.49793 33.1051 8.49666 34.5423 8.49856C34.7319 8.49881 34.9215 8.50721 35.0832 8.51115C35.2273 8.70291 35.1984 8.88298 35.1985 9.05429C35.1994 9.89554 35.1903 10.7368 35.1934 11.578C35.1981 12.8748 35.2099 14.1716 35.1328 15.4924ZM38.8606 3.61462C39.7675 2.88245 40.9282 1.78296 41.1738 1.41552C40.8835 1.36617 40.6127 1.44679 40.3498 1.49507C39.8064 1.59489 39.2546 1.67307 38.7429 1.86491C38.6951 2.18005 38.6752 3.35083 38.7156 3.6043C38.7191 3.62664 38.7661 3.64207 38.8606 3.61462ZM33.5069 4.75718C33.4614 4.7352 33.4076 4.68522 33.3717 4.69578C33.1374 4.76463 32.9479 4.89212 32.8509 5.1289C33.147 5.31503 33.432 5.33217 33.8676 5.2011C33.8581 5.16969 33.8572 5.13081 33.8376 5.10816C33.7476 5.00447 33.6525 4.90533 33.5069 4.75718Z" fill="var(--fill-0, white)"/>
<path id="Vector_2" d="M42.3852 1.29249C43.8854 1.22159 45.3563 1.39362 46.8001 1.81038C47.9464 2.14127 49.0551 2.57015 50.0999 3.14269C51.2687 3.78315 52.3663 4.53633 53.3813 5.40302C53.8472 5.80076 54.297 6.21729 54.7527 6.62684C54.8037 6.67267 54.8457 6.72851 54.9401 6.8331C54.8059 6.81737 54.7283 6.82391 54.664 6.79773C54.4861 6.72527 54.3154 6.63495 54.1385 6.55966C53.9817 6.49297 53.8204 6.437 53.5846 6.34715C53.8198 6.89812 54.1869 7.27928 54.4142 7.78232C54.3371 7.84463 54.2537 7.92888 54.1554 7.9884C53.7982 8.20462 53.4361 8.41254 53.0919 8.6142C53.094 8.75811 53.1765 8.73885 53.2388 8.74406C53.5356 8.76889 53.8331 8.78626 54.1293 8.81677C54.3017 8.83453 54.472 8.87208 54.6693 8.90509C54.6816 9.44901 54.5074 9.95176 54.4924 10.5262C54.5896 10.4526 54.6601 10.4138 54.7117 10.3576C55.0072 10.0356 55.2982 9.70945 55.6055 9.36835C56.0531 9.67211 56.298 10.1629 56.7512 10.5074C56.8111 10.2103 56.7115 9.96782 56.6896 9.72288C56.6664 9.46285 56.6204 9.20485 56.5835 8.94042C56.8112 8.797 56.9784 8.83473 57.1484 9.01601C57.6512 9.55207 58.1484 10.0948 58.6776 10.6042C59.2954 11.1989 59.9271 11.7821 60.5853 12.3315C61.2197 12.8611 61.9334 13.2707 62.7296 13.5229C63.7627 13.8501 64.7304 13.744 65.6306 13.1173C66.0785 12.8055 66.4875 12.4508 66.8544 12.0486C66.9816 11.9092 67.0862 11.7491 67.202 11.5974C67.1047 11.4363 66.969 11.4116 66.8398 11.3676C65.9342 11.0595 65.1104 10.6111 64.4115 9.94767C63.658 9.23251 63.1077 8.39627 62.869 7.37441C62.8334 7.22213 62.813 7.06328 62.8102 6.90701C62.8031 6.52463 62.9942 6.31949 63.3714 6.29783C63.9351 6.26544 64.4937 6.3193 65.0333 6.47986C65.9787 6.76112 66.8567 7.18819 67.6678 7.75322C68.3564 8.23291 68.8778 8.86129 69.3186 9.56492C69.3828 9.6674 69.4455 9.77079 69.5194 9.8907C69.8035 9.8907 70.0819 9.89726 70.3599 9.88955C71.499 9.85797 72.5427 10.1601 73.4839 10.7973C73.7723 10.9925 74.0398 11.2219 74.2999 11.4546C74.5475 11.6763 74.772 11.9238 75.0086 12.1579C75.5759 12.7192 76.2346 13.1447 76.9642 13.4622C77.5759 13.7285 78.1489 14.0638 78.7175 14.4108C79.429 14.845 79.5884 15.5141 79.4534 16.2256C79.3539 16.7502 78.9838 17.0721 78.5379 17.3125C77.8054 17.7076 77.0375 17.7537 76.2473 17.5166C75.643 17.3352 75.0319 17.1772 74.4055 17.1024C73.0072 16.9354 71.6437 17.0397 70.3554 17.6743C69.6015 18.0456 68.9871 18.5869 68.4775 19.2422C68.0372 19.8084 67.6265 20.3982 67.2169 20.9875C66.777 21.6205 66.3341 22.2479 65.8099 22.8179C64.9439 23.7595 63.924 24.484 62.7828 25.048C62.4536 25.2107 62.1217 25.3686 61.7976 25.5411C60.6077 26.1742 59.7795 27.1484 59.1993 28.3445C58.9396 28.8797 58.7104 29.4297 58.4699 29.9741C58.1372 30.7274 57.7935 31.4749 57.3206 32.1541C57.0395 32.5578 56.7324 32.939 56.3611 33.2655C55.7907 33.767 55.1212 34.0492 54.3754 34.1497C53.9861 34.2022 53.6055 34.1366 53.2492 33.9657C52.7983 33.7494 52.5415 33.3772 52.5282 32.8881C52.5154 32.4156 52.7647 32.0475 53.1748 31.8173C53.37 31.7076 53.5926 31.6338 53.8118 31.582C54.6776 31.3776 55.2132 30.8431 55.4747 30.0014C55.6369 29.4794 55.7268 28.9444 55.7817 28.4055C55.8527 27.7086 55.8869 27.008 55.9348 26.3088C55.9394 26.2414 55.9286 26.1729 55.9245 26.0974C55.1666 25.9851 54.4119 26.0259 53.6647 25.9118C52.9363 25.8007 52.2197 25.6527 51.5128 25.4586C50.7881 25.2597 50.0763 25.0159 49.369 24.6565C49.4167 24.5557 49.449 24.4627 49.5009 24.3823C49.6803 24.1047 49.8666 23.8314 50.095 23.4893C49.5055 23.6057 49.0578 23.8969 48.5302 24.0273C48.4802 23.9361 48.4171 23.8537 48.3873 23.7606C48.2809 23.4271 48.186 23.09 48.0861 22.7544C48.0616 22.6724 48.0479 22.58 47.9142 22.5686C47.7664 23.0576 47.6107 23.5483 47.4743 24.0694C46.9164 23.9305 46.4629 23.6639 45.9248 23.5068C45.941 23.7367 46.0843 23.8487 46.1713 23.9858C46.2651 24.1334 46.3728 24.2722 46.4704 24.4175C46.5678 24.5625 46.6603 24.7109 46.7651 24.8735C46.3835 25.298 45.8147 25.4424 45.3536 25.8373C45.5322 25.9095 45.6697 25.8803 45.7995 25.8902C45.9217 25.8996 46.0447 25.8992 46.1671 25.9065C46.307 25.9148 46.447 25.9244 46.5865 25.9382C46.7061 25.95 46.8251 25.9685 46.9747 25.988C47.0078 26.5352 46.8643 27.0549 46.8167 27.6663C47.0715 27.4332 47.2366 27.2344 47.4108 27.0438C47.5844 26.8538 47.7261 26.6288 47.9852 26.4727C48.2585 26.7386 48.4938 27.0178 48.7166 27.3046C48.7846 27.392 48.8026 27.531 48.8124 27.649C48.8835 28.5044 48.9358 29.3615 49.0146 30.2161C49.1658 31.8559 49.3337 33.494 49.7586 35.0924C50.1976 36.744 51.001 38.1738 52.3453 39.2578C52.6832 39.5303 53.0649 39.7568 53.4493 39.9617C54.6143 40.5826 55.8622 40.9868 57.1308 41.3374C58.3609 41.6775 59.5867 42.0334 60.8115 42.3925C61.6066 42.6257 62.3504 42.9758 63.0152 43.4731C63.28 43.6711 63.5261 43.9008 63.7501 44.1442C63.9013 44.3086 64.0212 44.512 64.1162 44.716C64.3661 45.2525 64.2323 45.7103 63.744 46.042C63.5086 46.202 63.242 46.2876 62.9604 46.3277C62.3665 46.4124 61.7722 46.4028 61.1786 46.331C59.9335 46.1805 58.7511 45.8005 57.6102 45.2986C56.65 44.8763 55.7058 44.4166 54.7629 43.9561C53.422 43.3013 52.0367 42.7695 50.5919 42.395C50.0333 42.2502 49.4688 42.1262 48.9148 41.9659C48.462 41.8348 48.0089 41.6911 47.5768 41.5048C46.6891 41.1221 46.0935 40.4624 45.8572 39.5134C45.7096 38.9204 45.5776 38.3228 45.4619 37.7227C45.0792 35.7369 44.4814 33.8195 43.611 31.9941C42.6501 29.979 41.3723 28.1955 39.6573 26.7443C38.8363 26.0495 37.9196 25.5032 36.9661 25.0173C36.4048 24.7313 35.8261 24.4797 35.2598 24.2032C34.9455 24.0497 34.6401 23.8779 34.3316 23.7125C34.1686 23.6251 34.072 23.5025 34.0479 23.304C33.9974 22.888 33.9211 22.4751 33.8541 22.0528C34.0516 21.9137 34.2633 21.9269 34.4674 21.9127C35.2186 21.8603 35.9701 21.8102 36.7212 21.7562C36.7472 21.7543 36.7707 21.7193 36.8263 21.6752C36.4497 21.3307 35.9906 21.1256 35.5767 20.8554C35.168 20.5885 34.7262 20.3714 34.3369 20.0459C34.5663 19.577 34.9021 19.1918 35.1702 18.7635C35.4289 18.35 35.7565 17.9809 35.9969 17.5195C35.783 17.4808 35.6355 17.5881 35.481 17.6503C34.8315 17.9116 34.1849 18.1802 33.5358 18.4427C33.4255 18.4873 33.3083 18.5146 33.1588 18.561C32.7839 17.625 32.5851 16.6515 32.2377 15.6558C31.9488 16.1525 31.8705 16.6556 31.7118 17.1274C31.5566 17.5892 31.4241 18.0587 31.2717 18.5576C31.1341 18.5231 31.0163 18.5081 30.9102 18.4644C30.3118 18.2181 29.7173 17.9622 29.1192 17.7153C28.8986 17.6243 28.687 17.4988 28.3989 17.4756C28.5906 17.934 28.8986 18.2676 29.1498 18.6364C29.4051 19.0112 29.6691 19.38 29.9495 19.7803C29.8626 19.8618 29.7946 19.9349 29.7174 19.9964C28.9636 20.5958 28.2284 21.2211 27.4494 21.7859C25.4727 23.2194 23.3496 24.402 21.1013 25.3542C19.4342 26.0603 17.698 26.5373 15.9116 26.8212C14.607 27.0286 13.2885 27.0346 11.9787 26.9136C10.7024 26.7956 9.46647 26.4527 8.27978 25.9709C7.05 25.4717 5.9795 24.7089 5.00392 23.8169C3.84098 22.7536 2.918 21.508 2.21845 20.0942C1.87661 19.4033 1.53325 18.714 1.35067 17.9607C1.28524 17.6908 1.23341 17.411 1.22865 17.1347C1.22291 16.8014 1.49637 16.5752 1.81438 16.6055C1.99862 16.623 2.14408 16.7204 2.24923 16.8691C2.3299 16.9832 2.39895 17.1057 2.46989 17.2264C2.9679 18.0738 3.51727 18.8873 4.15344 19.6358C5.31515 21.0027 6.68119 22.1091 8.36156 22.7813C9.26012 23.1408 10.1949 23.362 11.17 23.3736C11.5029 23.3776 11.836 23.3771 12.1689 23.3751C12.6966 23.372 13.2089 23.2708 13.7219 23.1534C15.7187 22.6965 17.4823 21.7687 19.1301 20.5725C21.26 19.0264 23.0836 17.176 24.7253 15.1304C25.8455 13.7345 26.8291 12.2433 27.8384 10.7695C28.1054 10.3794 28.371 9.98842 28.6307 9.6076C29.066 9.53899 31.8662 9.54479 32.2783 9.61907C32.1935 9.80972 32.0238 9.90655 31.8912 10.0328C31.7518 10.1654 31.6049 10.2902 31.4644 10.4217C31.3237 10.5533 31.1875 10.6898 31.048 10.8228C30.9212 10.9437 30.7928 11.063 30.6648 11.1825C30.524 11.314 30.3835 11.4459 30.2417 11.5762C30.0998 11.7065 29.9543 11.8329 29.8142 11.9651C29.6756 12.0959 29.5417 12.2319 29.3954 12.3759C29.5774 12.7115 29.8172 12.9534 30.1664 13.1782C30.35 13.4099 30.5031 13.5785 30.753 13.6184C30.8015 13.7342 30.8624 13.837 31.0065 13.8567C31.9905 12.9695 32.9761 12.0806 33.9629 11.1931C33.9705 11.1863 33.994 11.1972 34.0101 11.1998C34.0255 11.2081 34.0454 11.213 34.0551 11.2257C34.0644 11.2379 34.0654 11.2581 34.0662 11.275C34.0692 11.3449 34.0726 11.4149 34.0727 11.4848C34.0733 12.6235 34.0735 13.7622 34.074 14.9009C34.074 14.9534 34.0765 15.0059 34.0781 15.0585C34.0786 15.076 34.0796 15.0935 34.0812 15.1109C34.0827 15.1283 34.0843 15.1457 34.0877 15.1628C34.0912 15.1799 34.0971 15.1965 34.1104 15.2429C34.4118 15.4339 34.7647 15.4953 35.2187 15.5009C36.0011 15.6755 36.7024 15.616 37.4037 15.5338C37.4534 15.528 37.5005 15.4995 37.5898 15.4921C37.9779 15.4814 38.3228 15.4508 38.6739 15.2845C38.6806 15.1139 38.6928 14.943 38.6931 14.7722C38.6948 13.6888 38.6924 12.6053 38.6961 11.522C38.6965 11.4097 38.6529 11.2816 38.7822 11.161C38.8868 11.2498 38.9913 11.3335 39.0901 11.4234C39.9166 12.1755 40.7412 12.9297 41.5689 13.6804C41.642 13.7467 41.7331 13.7931 41.8248 13.8549C42.0512 13.6842 42.2578 13.5239 42.4696 13.3707C42.5632 13.303 42.608 13.2182 42.6444 13.0967C42.8784 12.9862 43.0373 12.846 43.1618 12.6251C43.254 12.5541 43.3107 12.4946 43.3857 12.4159C43.2312 12.2603 43.1024 12.121 42.9636 11.9926C42.1809 11.2685 41.3956 10.5471 40.6119 9.824C40.5511 9.76797 40.4667 9.71679 40.552 9.57441C40.891 9.5495 41.2548 9.56318 41.6175 9.56003C41.9847 9.55684 42.352 9.55897 42.7192 9.55929C43.0864 9.5596 43.4536 9.56375 43.8208 9.56033C44.184 9.55694 44.5486 9.57831 44.9431 9.54266C45.0279 9.17367 45.2119 8.84534 45.1211 8.42501C45.1587 8.3046 45.1996 8.2224 45.202 8.13912C45.215 7.67562 45.2268 7.21175 45.2206 6.74825C45.2188 6.61536 45.156 6.48327 45.1212 6.35082C45.1836 5.99029 45.0461 5.67295 44.9195 5.32916C44.6187 5.27864 44.324 5.30165 44.0317 5.29577C43.7352 5.28979 43.4386 5.29166 43.142 5.29054C42.8454 5.28943 42.5487 5.28846 42.2521 5.2882C41.9555 5.28793 41.6589 5.29278 41.3623 5.28771C41.0719 5.28275 40.7791 5.31167 40.426 5.25908C40.7473 4.86944 41.0968 4.59264 41.4209 4.29157C41.7403 3.99493 42.0684 3.70765 42.3868 3.4099C42.7165 3.10146 43.0391 2.78538 43.388 2.45045C43.1443 2.15948 42.9407 1.86226 42.5695 1.6475C42.4787 1.50584 42.432 1.39917 42.3852 1.29249ZM60.4639 18.7464C60.6896 18.7215 60.9153 18.6968 61.141 18.6716C61.3711 18.6459 61.611 18.6874 61.8888 18.5885C61.4028 18.2507 60.9004 18.0466 60.4731 17.7071C60.7303 17.2039 61.1332 16.8246 61.3658 16.3411C61.2574 16.2567 61.1777 16.3155 61.1013 16.3461C60.7772 16.4758 60.4558 16.6123 60.1318 16.7422C60.0407 16.7787 59.9441 16.8012 59.8458 16.8314C59.5705 16.3069 59.5557 15.7246 59.2827 15.1953C59.0428 15.75 59.0086 16.3349 58.7437 16.8379C58.2011 16.7312 57.7675 16.4124 57.2018 16.2789C57.4608 16.8249 57.8748 17.1996 58.0924 17.7137C57.9622 17.8032 57.8527 17.8874 57.735 17.9577C57.4649 18.1191 57.1894 18.2714 56.9193 18.4326C56.855 18.471 56.7505 18.4974 56.8049 18.6224C57.2998 18.6739 57.8007 18.6993 58.2876 18.7944C58.3531 19.3422 58.1292 19.8433 58.183 20.4232C58.6223 20.0476 58.8828 19.5843 59.2965 19.2641C59.7104 19.627 59.9821 20.0885 60.4271 20.41C60.4271 20.3373 60.4307 20.304 60.4266 20.2716C60.3735 19.8561 60.3161 19.4411 60.2677 19.025C60.2561 18.9253 60.2432 18.8107 60.4639 18.7464ZM48.2914 14.306C48.1301 14.3736 47.9691 14.4422 47.8073 14.5085C47.6352 14.5791 47.4712 14.6876 47.2564 14.6498C47.2165 14.5394 47.1781 14.4429 47.1469 14.344C47.1101 14.2274 47.0789 14.109 47.0464 13.9911C47.0186 13.89 47 13.7855 46.9633 13.6878C46.9253 13.5868 46.9498 13.4471 46.8054 13.3777C46.5714 13.809 46.5759 14.3031 46.337 14.7123C45.8795 14.6202 45.5027 14.3494 45.0029 14.2261C45.2259 14.7081 45.5716 15.0442 45.7397 15.5002C45.3847 15.7101 45.0545 15.9047 44.725 16.1006C44.6646 16.1365 44.6057 16.1768 44.6667 16.2958C44.9747 16.3116 45.3019 16.3238 45.6281 16.3477C45.7412 16.356 45.8521 16.3934 45.9716 16.4192C45.9227 16.8552 45.8779 17.2532 45.8344 17.6513C45.8328 17.6666 45.8406 17.6883 45.8518 17.6982C45.8634 17.7085 45.8845 17.7082 45.9236 17.7182C46.2055 17.4106 46.4948 17.0949 46.8073 16.7538C47.0925 17.0415 47.3221 17.3237 47.5563 17.6018C47.6077 17.6627 47.6482 17.7555 47.7589 17.7117C47.8557 17.2643 47.5617 16.8288 47.7066 16.3545C47.8557 16.3456 47.9933 16.3361 48.1309 16.3296C48.2708 16.3229 48.4108 16.3203 48.5506 16.3137C48.6838 16.3074 48.8231 16.3254 48.9811 16.2348C48.8185 16.0228 48.6032 15.9449 48.4258 15.82C48.2427 15.691 48.0239 15.6122 47.8441 15.4198C48.0972 15.0408 48.3451 14.6696 48.632 14.2399C48.4911 14.2613 48.4263 14.2711 48.2914 14.306ZM53.4557 18.8576C53.4143 18.7246 53.3713 18.5921 53.3322 18.4584C53.3113 18.3867 53.2823 18.3311 53.1717 18.3473C53.1042 18.5428 53.0332 18.7483 52.9684 18.936C52.7104 18.9659 52.5308 18.7622 52.2977 18.8149C52.3426 19.058 52.6134 19.169 52.5962 19.4131C52.4561 19.6001 52.1992 19.6372 52.0744 19.8455C52.3031 19.9521 52.5491 19.8344 52.7455 19.9806C52.8193 20.1927 52.6198 20.4116 52.7692 20.6463C52.9374 20.483 53.0927 20.3323 53.2411 20.1883C53.4494 20.3133 53.5181 20.5417 53.7456 20.627C53.7456 20.3878 53.7456 20.1715 53.7456 19.9327C53.9231 19.9178 54.0774 19.9097 54.2301 19.8894C54.2842 19.8821 54.3344 19.845 54.4068 19.8123C54.2282 19.6175 53.9945 19.5534 53.8694 19.3969C53.9218 19.1404 54.1872 19.0307 54.1702 18.7405C54.0485 18.7786 53.9551 18.8118 53.8595 18.8367C53.744 18.8669 53.6266 18.8902 53.4557 18.8576Z" fill="var(--fill-0, #001B69)"/>
<path id="Vector_3" d="M45.0712 6.34625C45.1542 6.48316 45.217 6.61525 45.2188 6.74814C45.2249 7.21164 45.2132 7.67551 45.2002 8.13901C45.1978 8.22229 45.1569 8.30449 45.0728 8.43378C44.7671 8.48754 44.5224 8.50071 44.2776 8.50087C42.2303 8.50221 40.183 8.50021 38.1357 8.50258C37.9655 8.50278 37.7861 8.45931 37.6248 8.56738C37.5207 8.72659 37.5579 8.90652 37.556 9.07718C37.5497 9.63706 37.5525 10.1971 37.5519 10.757C37.5503 12.3318 37.5486 13.9066 37.547 15.4814C37.4987 15.4994 37.4516 15.5279 37.4018 15.5337C36.7006 15.6159 35.9992 15.6754 35.2598 15.4888C35.2101 14.1713 35.1984 12.8746 35.1936 11.5778C35.1906 10.7366 35.1996 9.89529 35.1988 9.05404C35.1986 8.88273 35.2275 8.70266 35.0834 8.5109C34.9218 8.50696 34.7322 8.49856 34.5425 8.49831C33.1053 8.49641 31.6681 8.49767 30.231 8.49354C30.0272 8.49295 29.8146 8.52407 29.6192 8.41639C29.8822 7.9333 30.9011 6.76694 31.4554 6.32218C32.6378 6.32218 33.8622 6.32218 35.0888 6.32218C35.2098 6.12413 35.1945 5.93008 35.196 5.74212C35.2009 5.12872 35.2004 4.51527 35.2032 3.90184C35.2037 3.77926 35.1906 3.65201 35.2192 3.53562C35.2421 3.44281 35.301 3.33987 35.3757 3.28311C35.4996 3.18885 35.6467 3.12338 35.7881 3.05401C36.3204 2.7928 36.8491 2.52296 37.4089 2.32331C37.5927 2.46599 37.5413 2.65433 37.5427 2.81862C37.551 3.78252 37.5506 4.74651 37.5529 5.71046C37.5533 5.88389 37.553 6.05732 37.553 6.25064C37.6785 6.28221 37.7749 6.32526 37.8723 6.32763C38.2402 6.33657 38.6083 6.3324 38.9764 6.33295C40.9919 6.33593 43.0075 6.33885 45.0712 6.34625Z" fill="var(--fill-0, #D70A2D)"/>
<path id="Vector_4" d="M30.7856 13.5961C30.5008 13.5785 30.3478 13.4099 30.1992 13.1828C30.5224 12.8224 30.8559 12.4885 31.2009 12.167C31.9312 11.4862 32.6654 10.8094 33.4032 10.1367C33.5807 9.9749 33.7431 9.78754 33.9749 9.69108C34.1795 10.1241 34.1465 10.44 33.8495 10.7347C33.5511 11.0307 33.2389 11.3128 32.9318 11.6001C32.2283 12.2583 31.5243 12.9159 30.7856 13.5961Z" fill="var(--fill-0, #D41334)"/>
<path id="Vector_5" d="M42.3449 1.2841C42.4312 1.39914 42.478 1.50581 42.5331 1.6465C42.1282 2.081 41.7205 2.48742 41.3004 2.8806C40.573 3.56146 39.8376 4.23388 39.1062 4.91049C39.0062 5.00303 38.9128 5.10463 38.7375 5.14892C38.6592 4.85106 38.685 4.58052 38.7128 4.28323C39.5079 3.53942 40.3101 2.78707 41.1148 2.03739C41.3321 1.83495 41.5614 1.6453 41.7767 1.44092C41.9294 1.29604 42.1039 1.25003 42.3449 1.2841Z" fill="var(--fill-0, #D41334)"/>
<path id="Vector_6" d="M38.8262 3.63739C38.7656 3.64179 38.7186 3.62636 38.715 3.60402C38.6747 3.35055 38.6946 2.17977 38.7424 1.86463C39.2541 1.6728 39.8058 1.59461 40.3493 1.4948C40.6122 1.44651 40.883 1.36589 41.1733 1.41524C40.9277 1.78268 39.7669 2.88217 38.8262 3.63739Z" fill="var(--fill-0, #0B184C)"/>
<path id="Vector_7" d="M33.5342 4.78061C33.6537 4.90508 33.7488 5.00421 33.8387 5.1079C33.8584 5.13055 33.8593 5.16944 33.8688 5.20086C33.4332 5.33191 33.1482 5.31477 32.8521 5.12865C32.9491 4.89187 33.1386 4.76437 33.3729 4.69553C33.4088 4.68497 33.4625 4.73495 33.5342 4.78061Z" fill="var(--fill-0, #CB2440)"/>
<path id="Vector_8" d="M37.5875 15.4918C37.5481 13.9064 37.5497 12.3316 37.5514 10.7568C37.552 10.1968 37.5492 9.63686 37.5555 9.07697C37.5574 8.90632 37.5201 8.72638 37.6242 8.56717C37.7855 8.45911 37.965 8.50257 38.1351 8.50237C40.1824 8.5 42.2298 8.50201 44.2771 8.50066C44.5218 8.5005 44.7666 8.48733 45.0578 8.4713C45.2095 8.84502 45.0256 9.17335 44.9408 9.54235C44.5462 9.57799 44.1817 9.55663 43.8184 9.56001C43.4513 9.56343 43.084 9.55929 42.7168 9.55897C42.3496 9.55866 41.9824 9.55653 41.6152 9.55972C41.2524 9.56287 40.8886 9.54918 40.5496 9.57409C40.4643 9.71647 40.5488 9.76766 40.6095 9.82368C41.3932 10.5468 42.1785 11.2681 42.9613 11.9923C43.1001 12.1207 43.2288 12.26 43.3834 12.4156C43.3083 12.4943 43.2516 12.5538 43.1354 12.5999C42.0697 11.6623 41.0646 10.7369 40.0556 9.81585C39.9546 9.72369 39.8383 9.63673 39.7135 9.58525C39.5578 9.52103 39.1562 9.56959 38.8701 9.65653C38.969 9.76866 39.0487 9.87664 39.1454 9.96624C40.1991 10.9422 41.2547 11.9161 42.3122 12.888C42.4015 12.97 42.5078 13.0335 42.6062 13.1056C42.6056 13.2179 42.5609 13.3027 42.4672 13.3704C42.2554 13.5236 42.0488 13.6839 41.8225 13.8546C41.7307 13.7928 41.6396 13.7463 41.5665 13.6801C40.7388 12.9293 39.9142 12.1752 39.0878 11.4231C38.989 11.3332 38.8845 11.2495 38.7799 11.1606C38.6506 11.2812 38.6941 11.4093 38.6937 11.5216C38.69 12.605 38.6924 13.6885 38.6907 14.7719C38.6904 14.9427 38.6782 15.1135 38.6715 15.2842C38.3204 15.4505 37.9755 15.4811 37.5875 15.4918Z" fill="var(--fill-0, white)"/>
<path id="Vector_9" d="M60.4144 18.751C60.2415 18.8107 60.2543 18.9254 60.2659 19.0251C60.3143 19.4411 60.3717 19.8561 60.4248 20.2716C60.429 20.304 60.4254 20.3373 60.4254 20.41C59.9804 20.0885 59.7087 19.6271 59.2947 19.2641C58.8811 19.5843 58.6205 20.0476 58.1812 20.4232C58.1275 19.8433 58.3513 19.3422 58.2859 18.7944C57.799 18.6994 57.2981 18.6739 56.8031 18.6224C56.7488 18.4975 56.8533 18.471 56.9176 18.4326C57.1877 18.2714 57.4632 18.1191 57.7333 17.9578C57.851 17.8874 57.9605 17.8033 58.0906 17.7137C57.8731 17.1996 57.4591 16.825 57.2001 16.2789C57.7657 16.4125 58.1994 16.7313 58.742 16.8379C59.0069 16.335 59.0411 15.75 59.281 15.1954C59.554 15.7247 59.5688 16.3069 59.8441 16.8314C59.9424 16.8012 60.039 16.7787 60.13 16.7422C60.4541 16.6123 60.7754 16.4758 61.0995 16.3461C61.176 16.3155 61.2557 16.2568 61.3641 16.3411C61.1315 16.8246 60.7285 17.204 60.4713 17.7071C60.8986 18.0466 61.4011 18.2508 61.887 18.5885C61.6093 18.6875 61.3694 18.646 61.1393 18.6716C60.9136 18.6968 60.6878 18.7215 60.4144 18.751Z" fill="var(--fill-0, white)"/>
<path id="Vector_10" d="M48.3241 14.2932C48.424 14.2708 48.4889 14.261 48.6298 14.2396C48.3428 14.6693 48.095 15.0404 47.8418 15.4195C48.0217 15.6119 48.2404 15.6906 48.4236 15.8196C48.6009 15.9446 48.8163 16.0225 48.9789 16.2345C48.8209 16.3251 48.6815 16.307 48.5484 16.3133C48.4085 16.3199 48.2685 16.3225 48.1287 16.3292C47.991 16.3358 47.8534 16.3453 47.7043 16.3541C47.5595 16.8284 47.8534 17.2639 47.7566 17.7114C47.646 17.7551 47.6054 17.6624 47.5541 17.6014C47.3198 17.3233 47.0903 17.0411 46.8051 16.7535C46.4925 17.0946 46.2032 17.4103 45.9214 17.7179C45.8822 17.7078 45.8612 17.7081 45.8495 17.6978C45.8383 17.6879 45.8305 17.6663 45.8322 17.651C45.8756 17.2529 45.9205 16.8549 45.9693 16.4189C45.8498 16.3931 45.7389 16.3557 45.6259 16.3474C45.2996 16.3235 44.9725 16.3113 44.6645 16.2955C44.6034 16.1765 44.6623 16.1362 44.7227 16.1003C45.0522 15.9044 45.3824 15.7097 45.7375 15.4998C45.5693 15.0439 45.2237 14.7078 45.0006 14.2257C45.5005 14.349 45.8772 14.6198 46.3348 14.712C46.5737 14.3027 46.5691 13.8087 46.8032 13.3773C46.9476 13.4468 46.9231 13.5864 46.961 13.6875C46.9977 13.7852 47.0163 13.8897 47.0441 13.9908C47.0766 14.1087 47.1078 14.2271 47.1446 14.3437C47.1758 14.4425 47.2143 14.5391 47.2541 14.6495C47.469 14.6872 47.6329 14.5787 47.805 14.5082C47.9669 14.4419 48.1278 14.3733 48.3241 14.2932Z" fill="var(--fill-0, white)"/>
<path id="Vector_11" d="M42.6414 13.0967C42.5072 13.0338 42.4009 12.9703 42.3116 12.8883C41.2541 11.9164 40.1985 10.9425 39.1448 9.96652C39.0481 9.87692 38.9683 9.76895 38.8695 9.65682C39.1556 9.56987 39.5572 9.52132 39.7129 9.58553C39.8377 9.63701 39.954 9.72398 40.055 9.81614C41.064 10.7372 42.0691 11.6626 43.0993 12.6116C43.0343 12.846 42.8754 12.9862 42.6414 13.0967Z" fill="var(--fill-0, #D41333)"/>
<path id="Vector_12" d="M53.4797 18.8871C53.6235 18.8903 53.7408 18.867 53.8564 18.8368C53.952 18.8118 54.0454 18.7787 54.1671 18.7406C54.1841 19.0308 53.9187 19.1404 53.8663 19.397C53.9913 19.5535 54.2251 19.6175 54.4036 19.8124C54.3313 19.8451 54.2811 19.8822 54.2269 19.8894C54.0742 19.9097 53.9199 19.9178 53.7424 19.9327C53.7424 20.1716 53.7424 20.3879 53.7424 20.6271C53.5149 20.5418 53.4463 20.3133 53.2379 20.1884C53.0896 20.3323 52.9343 20.4831 52.766 20.6463C52.6167 20.4117 52.8161 20.1927 52.7423 19.9807C52.5459 19.8345 52.3 19.9522 52.0713 19.8455C52.196 19.6373 52.453 19.6001 52.5931 19.4132C52.6103 19.169 52.3395 19.058 52.2945 18.815C52.5277 18.7623 52.7073 18.9659 52.9652 18.936C53.03 18.7483 53.101 18.5428 53.1685 18.3473C53.2791 18.3312 53.3082 18.3867 53.3291 18.4584C53.3681 18.5921 53.4112 18.7246 53.4797 18.8871Z" fill="var(--fill-0, white)"/>
</g>
</svg>
