<svg  viewBox="0 0 348.467 46.5276" fill="none" xmlns="http://www.w3.org/2000/svg">
<g id="Group 928">
<g id="Group 927">
<path id="Vector" d="M75.5714 37.2947C73.641 37.2947 71.8485 37.0958 70.2049 36.7038C68.5613 36.3059 67.1274 35.7442 65.9085 35.0011C64.6896 34.2639 63.7354 33.3452 63.057 32.2511C62.3786 31.1511 62.0367 29.8872 62.0367 28.4479C62.0367 28.3016 62.0367 28.1611 62.0367 28.0149C62.0367 27.8687 62.0532 27.7458 62.0863 27.6345L69.4659 27.6345C69.4659 27.7048 69.4659 27.7866 69.4659 27.8803C69.4659 27.9682 69.4659 28.05 69.4659 28.126C69.499 28.992 69.8023 29.6942 70.3814 30.2325C70.955 30.7708 71.7217 31.1569 72.6703 31.391C73.619 31.625 74.6228 31.742 75.6707 31.742C76.6524 31.742 77.6121 31.6718 78.5442 31.5255C79.4763 31.3793 80.2595 31.0926 80.8827 30.6596C81.5115 30.2266 81.8258 29.6532 81.8258 28.9335C81.8258 28.0324 81.4508 27.3713 80.7062 26.9384C79.9616 26.5054 78.9358 26.1661 77.6286 25.9145C76.3215 25.6629 74.8544 25.3761 73.2274 25.0484C71.8706 24.7967 70.5745 24.4751 69.3335 24.0772C68.098 23.6792 66.9839 23.1703 66.0022 22.5383C65.0205 21.9063 64.2373 21.0989 63.6637 20.1101C63.0846 19.1213 62.7978 17.8868 62.7978 16.4123C62.7978 14.8677 63.1177 13.5335 63.763 12.4159C64.4083 11.2984 65.3238 10.3856 66.5096 9.66605C67.6954 8.94634 69.0964 8.41388 70.7069 8.07453C72.3173 7.73519 74.0547 7.55953 75.9189 7.55953C77.6507 7.55953 79.2778 7.7293 80.8055 8.07453C82.3333 8.41388 83.6569 8.92279 84.7711 9.58401C85.8908 10.2511 86.7787 11.0878 87.4404 12.0942C88.1023 13.1005 88.4332 14.2357 88.4332 15.4936C88.4332 15.71 88.4332 15.9091 88.4332 16.0845C88.4332 16.2661 88.4168 16.4064 88.3836 16.5177L81.0096 16.5177L81.0096 16.1373C81.0096 15.4527 80.7779 14.8969 80.3201 14.464C79.8624 14.0308 79.2336 13.6973 78.4394 13.4634C77.6397 13.2292 76.7351 13.1123 75.7148 13.1123C75.2074 13.1123 74.6283 13.1474 73.983 13.2177C73.3377 13.2877 72.7199 13.4165 72.1243 13.5978C71.5286 13.7794 71.0543 14.0308 70.7013 14.3527C70.3483 14.6745 70.1663 15.0898 70.1663 15.5931C70.1663 16.2425 70.4862 16.7516 71.1315 17.132C71.7768 17.5123 72.6317 17.8048 73.7017 18.0213C74.7717 18.2377 75.9299 18.4719 77.1874 18.7235C78.6104 19.0452 80.0389 19.3788 81.4618 19.7239C82.8848 20.0634 84.192 20.5256 85.3777 21.0989C86.5636 21.6724 87.4957 22.5032 88.174 23.5799C88.8524 24.6564 89.1888 26.1017 89.1888 27.8979C89.1888 29.624 88.8579 31.0926 88.196 32.2979C87.5343 33.5032 86.5966 34.4745 85.3722 35.2118C84.1533 35.949 82.7084 36.4814 81.0482 36.8032C79.4046 37.1309 77.5735 37.2947 75.5714 37.2947Z" fill="var(--fill-0, white)"/>
<path id="Vector_2" d="M104.418 37.2947C101.23 37.2947 98.7651 36.4287 97.0166 34.7027C95.2684 32.9766 94.3969 30.2617 94.3969 26.5521L94.3969 8.25581L101.826 8.25581L101.826 25.2532C101.826 26.3005 101.942 27.1723 102.185 27.8686C102.422 28.5707 102.78 29.1383 103.255 29.5713C103.729 30.0043 104.297 30.3202 104.959 30.5133C105.621 30.7064 106.376 30.8117 107.22 30.8117C108.439 30.8117 109.553 30.525 110.552 29.9458C111.55 29.3724 112.355 28.5707 112.967 27.5467C113.579 26.5228 113.883 25.3586 113.883 24.0654L113.883 8.24992L121.362 8.24992L121.362 36.6394L115.256 36.6394L114.699 32.3213L114.341 32.3213C113.524 33.4389 112.609 34.3633 111.594 35.1006C110.574 35.8378 109.448 36.3878 108.213 36.7447C106.972 37.1133 105.709 37.2947 104.418 37.2947Z" fill="var(--fill-0, white)"/>
<path id="Vector_3" d="M128.074 46.5218L128.074 8.25581L134.13 8.25581L134.792 12.3574L135.15 12.3574C136.204 10.6314 137.533 9.40847 139.143 8.68877C140.754 7.96906 142.508 7.61225 144.411 7.61225C146.887 7.61225 149.033 8.13295 150.847 9.18022C152.662 10.2218 154.063 11.8426 155.044 14.0366C156.026 16.2309 156.517 19.0394 156.517 22.4564C156.517 25.8031 156.015 28.5765 155.017 30.7707C154.018 32.9649 152.634 34.6032 150.869 35.6798C149.104 36.7564 147.036 37.3005 144.664 37.3005C143.478 37.3005 142.331 37.1542 141.228 36.8675C140.125 36.5808 139.116 36.1361 138.2 35.5452C137.285 34.9542 136.501 34.2228 135.862 33.3569L135.558 33.3569L135.558 46.5276L128.074 46.5276L128.074 46.5218ZM142.271 30.8702C143.798 30.8702 145.05 30.5718 146.038 29.9808C147.019 29.3899 147.747 28.4888 148.227 27.2835C148.702 26.0781 148.939 24.6504 148.939 22.9948L148.939 21.918C148.939 20.1921 148.702 18.735 148.227 17.5474C147.753 16.3596 147.025 15.4701 146.038 14.8735C145.05 14.2823 143.782 13.984 142.221 13.984C140.765 13.984 139.53 14.3059 138.531 14.9553C137.533 15.6048 136.766 16.5292 136.242 17.7344C135.713 18.9399 135.454 20.3734 135.454 22.0234L135.454 22.7783C135.454 24.001 135.608 25.1244 135.911 26.1483C136.215 27.1723 136.65 28.0382 137.207 28.7404C137.765 29.4425 138.459 29.975 139.292 30.3319C140.125 30.6947 141.118 30.8702 142.271 30.8702Z" fill="var(--fill-0, white)"/>
<path id="Vector_4" d="M175.996 37.2947C172.775 37.2947 170.034 36.7623 167.779 35.7032C165.523 34.6442 163.802 33.0117 162.616 30.8176C161.43 28.6234 160.835 25.8324 160.835 22.4505C160.835 19.0687 161.425 16.2776 162.616 14.0835C163.802 11.8893 165.506 10.2628 167.729 9.1979C169.952 8.13885 172.638 7.60638 175.792 7.60638C178.881 7.60638 181.501 8.12707 183.652 9.17454C185.803 10.2159 187.435 11.8074 188.533 13.9489C189.636 16.0905 190.188 18.776 190.188 22.0176L190.188 24.2293L168.517 24.2293C168.584 25.8852 168.909 27.2602 169.483 28.3601C170.056 29.4601 170.9 30.2617 172.003 30.7649C173.106 31.2681 174.469 31.5197 176.101 31.5197C176.912 31.5197 177.695 31.4202 178.44 31.2213C179.184 31.0224 179.863 30.7181 180.475 30.3027C181.087 29.8873 181.594 29.3782 182.003 28.7639C182.411 28.1554 182.631 27.4531 182.664 26.6575L190.143 26.6575C190.143 28.3134 189.796 29.8054 189.101 31.1394C188.406 32.4734 187.446 33.5851 186.227 34.4862C185.009 35.3872 183.53 36.0777 181.799 36.5633C180.067 37.049 178.136 37.2947 175.996 37.2947ZM168.622 19.3203L182.356 19.3203C182.356 18.3138 182.196 17.4303 181.87 16.6756C181.545 15.9208 181.098 15.2888 180.525 14.7856C179.945 14.2825 179.267 13.9138 178.489 13.6798C177.712 13.4457 176.846 13.3287 175.897 13.3287C174.441 13.3287 173.195 13.5511 172.158 14.0017C171.121 14.4521 170.316 15.1249 169.742 16.0262C169.163 16.9329 168.788 18.0271 168.622 19.3203Z" fill="var(--fill-0, white)"/>
<path id="Vector_5" d="M195.684 36.6456L195.684 8.25624L201.79 8.25624L202.402 12.8962L202.761 12.8962C203.097 11.9248 203.593 11.0238 204.233 10.1989C204.878 9.37378 205.667 8.72433 206.599 8.25624C207.531 7.78815 208.59 7.554 209.782 7.554C210.394 7.554 210.951 7.6068 211.458 7.71788C211.966 7.82328 212.407 7.95203 212.782 8.09825L212.782 15.0084L209.831 15.0084C208.678 15.0084 207.686 15.1956 206.853 15.576C206.02 15.9561 205.325 16.4945 204.768 17.1967C204.211 17.8988 203.803 18.718 203.549 19.6542C203.296 20.5903 203.169 21.6494 203.169 22.837L203.169 36.6514L195.684 36.6514L195.684 36.6456Z" fill="var(--fill-0, white)"/>
<path id="Vector_6" d="M226.463 37.2947C224.599 37.2947 223.071 36.9905 221.886 36.3761C220.7 35.7676 219.823 34.8548 219.266 33.6495C218.709 32.4442 218.427 30.9404 218.427 29.1442L218.427 14.1947L214.307 14.1947L214.307 8.25592L218.731 8.25592L220.154 1.5732e-05L225.901 1.54809e-05L225.901 8.25592L231.901 8.25592L231.901 14.1947L225.901 14.1947L225.901 28.0091C225.901 29.0856 226.11 29.9048 226.535 30.4665C226.96 31.0224 227.765 31.3032 228.951 31.3032L231.901 31.3032L231.901 36.4287C231.46 36.575 230.92 36.7096 230.274 36.8325C229.629 36.9553 228.967 37.0665 228.289 37.1543C227.616 37.2479 227.009 37.2947 226.463 37.2947Z" fill="var(--fill-0, white)"/>
<path id="Vector_7" d="M250.883 37.2947C247.663 37.2947 244.921 36.7623 242.666 35.7032C240.41 34.6442 238.689 33.0117 237.503 30.8176C236.318 28.6234 235.722 25.8324 235.722 22.4505C235.722 19.0687 236.318 16.2776 237.503 14.0835C238.689 11.8893 240.393 10.2628 242.616 9.1979C244.839 8.13885 247.525 7.60638 250.68 7.60638C253.763 7.60638 256.388 8.12707 258.538 9.17454C260.691 10.2159 262.322 11.8074 263.426 13.9489C264.53 16.0905 265.08 18.776 265.08 22.0176L265.08 24.2293L243.41 24.2293C243.477 25.8852 243.802 27.2602 244.375 28.3601C244.949 29.4601 245.793 30.2617 246.896 30.7649C247.999 31.2681 249.361 31.5197 250.994 31.5197C251.81 31.5197 252.588 31.4202 253.332 31.2213C254.077 31.0224 254.755 30.7181 255.368 30.3027C255.98 29.8873 256.487 29.3782 256.895 28.7639C257.304 28.1554 257.524 27.4531 257.557 26.6575L265.035 26.6575C265.035 28.3134 264.688 29.8054 263.994 31.1394C263.298 32.4734 262.34 33.5851 261.12 34.4862C259.901 35.3872 258.422 36.0777 256.697 36.5633C254.954 37.049 253.018 37.2947 250.883 37.2947ZM243.504 19.3203L257.243 19.3203C257.243 18.3138 257.083 17.4303 256.758 16.6756C256.438 15.9208 255.985 15.2888 255.412 14.7856C254.833 14.2825 254.154 13.9138 253.377 13.6798C252.593 13.4457 251.733 13.3287 250.784 13.3287C249.328 13.3287 248.082 13.5511 247.045 14.0017C246.008 14.4521 245.203 15.1249 244.629 16.0262C244.05 16.9329 243.675 18.0271 243.504 19.3203Z" fill="var(--fill-0, white)"/>
<path id="Vector_8" d="M279.019 37.2947C277.833 37.2947 276.647 37.166 275.455 36.9144C274.269 36.6628 273.21 36.2474 272.279 35.674C271.348 35.1006 270.591 34.2814 270.018 33.2165C269.438 32.1575 269.152 30.8 269.152 29.1442C269.152 27.0203 269.626 25.3059 270.575 23.9893C271.524 22.6787 272.896 21.6899 274.694 21.023C276.492 20.3559 278.621 19.917 281.082 19.7006C283.54 19.4841 286.244 19.3787 289.195 19.3787L289.195 17.7053C289.195 16.734 289.001 15.9324 288.61 15.3064C288.218 14.6746 287.612 14.1829 286.779 13.8202C285.946 13.4632 284.838 13.2819 283.448 13.2819C282.229 13.2819 281.186 13.4165 280.321 13.6856C279.455 13.9549 278.792 14.3058 278.335 14.7388C277.876 15.1717 277.645 15.6749 277.645 16.2484L277.645 16.8979L270.32 16.8979C270.287 16.6814 270.26 16.5 270.244 16.3595C270.226 16.2133 270.216 16.0378 270.216 15.8214C270.216 14.1655 270.74 12.7202 271.793 11.4798C272.847 10.2394 274.381 9.28572 276.398 8.61862C278.417 7.95171 280.833 7.61806 283.646 7.61806C286.46 7.61806 288.824 7.93993 290.743 8.58937C292.659 9.23882 294.125 10.2453 295.145 11.6144C296.16 12.9836 296.674 14.7272 296.674 16.8512L296.674 29.3197C296.674 29.9692 296.833 30.4607 297.158 30.8059C297.478 31.1452 297.882 31.3208 298.356 31.3208L300.489 31.3208L300.489 36.3936C300.115 36.575 299.525 36.7623 298.709 36.9612C297.892 37.1601 296.943 37.2596 295.857 37.2596C294.6 37.2596 293.569 37.0899 292.751 36.7447C291.935 36.4054 291.302 35.9373 290.843 35.3405C290.387 34.7436 290.055 34.0532 289.851 33.2633L289.444 33.2633C288.732 34.0532 287.854 34.7671 286.822 35.3931C285.785 36.025 284.617 36.499 283.309 36.8208C282.007 37.1309 280.574 37.2947 279.019 37.2947ZM281.252 31.4671C282.235 31.4671 283.193 31.3325 284.127 31.0633C285.058 30.7942 285.897 30.4139 286.646 29.9282C287.391 29.4426 288.003 28.8282 288.477 28.0909C288.952 27.3537 289.189 26.5522 289.189 25.6921L289.189 24.1299C286.542 24.1299 284.285 24.2643 282.421 24.5336C280.558 24.8027 279.123 25.2533 278.125 25.8851C277.127 26.517 276.625 27.3889 276.625 28.5005C276.625 29.2202 276.829 29.7937 277.237 30.2266C277.645 30.6596 278.202 30.9755 278.913 31.1686C279.625 31.3676 280.409 31.4671 281.252 31.4671Z" fill="var(--fill-0, white)"/>
<path id="Vector_9" d="M303.991 36.6454L303.991 8.25592L310.096 8.25592L310.708 12.5214L311.067 12.5214C311.778 11.4038 312.633 10.4794 313.637 9.74224C314.635 9.00487 315.715 8.46671 316.868 8.12148C318.021 7.78214 319.207 7.60648 320.432 7.60648C322.501 7.60648 324.248 7.99273 325.671 8.76503C327.094 9.53734 328.181 10.7895 328.926 12.5155L329.284 12.5155C330.029 11.3979 330.906 10.4735 331.904 9.73635C332.902 8.99898 334.005 8.46082 335.213 8.11559C336.415 7.77625 337.646 7.60079 338.903 7.60079C340.905 7.60079 342.608 7.96348 344.016 8.6773C345.422 9.39701 346.514 10.5497 347.298 12.1294C348.074 13.715 348.466 15.7277 348.466 18.1736L348.466 36.6337L340.938 36.6337L340.938 19.5251C340.938 18.5188 340.828 17.6527 340.607 16.9332C340.387 16.2135 340.071 15.64 339.664 15.2071C339.256 14.7741 338.738 14.4699 338.115 14.2885C337.485 14.107 336.819 14.0193 336.107 14.0193C334.988 14.0193 333.96 14.3001 333.029 14.8559C332.098 15.4118 331.353 16.2076 330.79 17.2315C330.233 18.2554 329.951 19.4199 329.951 20.7129L329.951 36.6337L322.522 36.6337L322.522 19.5251C322.522 18.5188 322.401 17.6527 322.164 16.933C321.926 16.2135 321.595 15.64 321.172 15.2071C320.746 14.7741 320.238 14.4699 319.642 14.2885C319.048 14.107 318.364 14.0193 317.58 14.0193C316.46 14.0193 315.435 14.3001 314.504 14.8559C313.57 15.4118 312.831 16.2076 312.29 17.2315C311.751 18.2554 311.475 19.4199 311.475 20.7129L311.475 36.6337L303.991 36.6337L303.991 36.6454Z" fill="var(--fill-0, white)"/>
</g>
<path id="Vector_10" d="M40.1973 9.52728H50.9587V13.6461C50.9587 19.2323 46.4034 23.7473 40.7673 23.7473H40.1973V9.52728ZM24.882 3.54496H40.1973V42.4265H38.3749C27.2729 42.4265 25.0523 34.7523 25.0523 27.9233L24.882 3.54496ZM0 12.349C0 19.2895 5.00988 21.8294 10.5897 22.6761H0V42.5395H10.1915C20.4406 42.5395 21.6354 38.0245 21.6354 33.7355C21.6354 28.4868 17.992 24.8199 12.3544 23.4083H21.6354V3.54496H11.4439C1.19619 3.54496 0 8.05995 0 12.349Z" fill="var(--fill-0, white)"/>
</g>
</svg>
